<?xml version="1.0" encoding="UTF-8" standalone="no"?>
<!-- Created with Inkscape (http://www.inkscape.org/) -->

<svg
   width="16"
   height="16"
   viewBox="0 0 16 16"
   version="1.1"
   id="SVGRoot"
   xmlns="http://www.w3.org/2000/svg"
   xmlns:svg="http://www.w3.org/2000/svg">
  <defs
     id="defs6415" />
  <g
     id="g20342">
    <path
       id="circle20336"
       style="fill:#e1b074;fill-opacity:1;stroke-width:1.53803"
       d="M 10.129333,0.69224698 A 1.3807547,1.7132343 24.751323 0 0 8.45083,2.326983 1.3807547,1.7132343 24.751323 0 0 8.4302141,2.6039692 L 5.3533666,7.9237708 4.0705127,6.0682552 2.9515104,7.1580793 4.5012463,9.3996123 0.96120542,15.517355 2.3077437,15.031704 l 2.7727579,-4.794258 2.1411223,3.096914 0.7763844,1.122959 4.1940737,-4.084712 1.27512,4.854192 1.189284,0.529981 L 13.029148,9.5573673 15.271525,7.3734619 14.495141,6.2505022 12.635235,8.061909 11.221824,2.6744407 A 1.3807547,1.7132343 24.751323 0 0 11.293906,2.3766868 1.3807547,1.7132343 24.751323 0 0 10.12933,0.69224698 Z M 9.5568105,4.3419143 9.9105423,5.6893294 11.100159,6.2171513 11.79817,8.8771482 8.3406262,12.244534 5.9341384,8.7637975 7.4426552,6.1532096 8.7888589,5.6697199 Z" />
  </g>
</svg>
