<?xml version="1.0" encoding="UTF-8" standalone="no"?>
<!-- Created with Inkscape (http://www.inkscape.org/) -->

<svg
   width="16"
   height="16"
   viewBox="0 0 16 16"
   version="1.1"
   id="SVGRoot"
   xmlns="http://www.w3.org/2000/svg"
   xmlns:svg="http://www.w3.org/2000/svg">
  <defs
     id="defs9" />
  <g
     id="layer1">
    <path
       id="path129"
       style="display:none;fill:#bd6e47"
       d="M 8,0 A 8,8 0 0 0 0,8 8,8 0 0 0 8,16 8,8 0 0 0 16,8 8,8 0 0 0 8,0 Z M 9,2.0839844 A 6,6 0 0 1 13.916016,7 H 9.7304688 A 2,2 0 0 0 9,6.2695312 Z m -2,0.00391 V 6.2734375 A 2,2 0 0 0 6.2734375,7 H 2.0878906 A 6,6 0 0 1 7,2.0878906 Z M 8,7 A 1,1 0 0 1 9,8 1,1 0 0 1 8,9 1,1 0 0 1 7,8 1,1 0 0 1 8,7 Z M 2.0878906,9 H 6.2734375 A 2,2 0 0 0 7,9.7265625 V 13.912109 A 6,6 0 0 1 2.0878906,9 Z M 9.7265625,9 H 13.912109 A 6,6 0 0 1 9,13.912109 V 9.7265625 A 2,2 0 0 0 9.7265625,9 Z" />
    <path
       id="path308"
       style="fill:#bd6e47;stroke-width:0.935414"
       d="M 14.565214,3.4285712 A 7,8 55.150094 0 0 3.9999997,2.2554374 7,8 55.150094 0 0 1.4347857,12.571428 7,8 55.150094 0 0 12,13.744562 7,8 55.150094 0 0 14.565214,3.4285712 Z M 13.354989,5.3374899 A 5.25,6 55.150094 0 1 11.77866,11.676687 L 9.6858861,8.6711696 A 1.75,2 55.150094 0 0 9.9201122,7.729231 Z M 12.35178,3.9035835 8.9169065,6.2953225 A 1.75,2 55.150094 0 0 7.9573704,6.1887781 L 5.8645969,3.1832612 a 5.25,6 55.150094 0 1 6.4871861,0.72032 z M 8.8206517,7.4285714 A 0.875,1 55.150094 0 1 8.4999999,8.7180703 0.875,1 55.150094 0 1 7.1793481,8.5714286 0.875,1 55.150094 0 1 7.4999999,7.2819297 0.875,1 55.150094 0 1 8.8206517,7.4285714 Z M 4.2232934,4.3261183 6.3160668,7.3316353 A 1.75,2 55.150094 0 0 6.0830932,8.2685368 L 2.648217,10.660278 A 5.25,6 55.150094 0 1 4.2232934,4.3261183 Z M 8.0426295,9.8112219 10.135403,12.816738 A 5.25,6 55.150094 0 1 3.6482172,12.096418 L 7.0830933,9.7046775 a 1.75,2 55.150094 0 0 0.9595362,0.1065444 z" />
  </g>
</svg>
